<?xml version="1.0" encoding="iso-8859-1"?>
<!-- Generator: Adobe Illustrator 19.0.0, SVG Export Plug-In . SVG Version: 6.00 Build 0)  -->
<svg version="1.1" id="Layer_1" xmlns="http://www.w3.org/2000/svg" xmlns:xlink="http://www.w3.org/1999/xlink" x="0px" y="0px"
	 viewBox="0 0 512 512" style="enable-background:new 0 0 512 512;" xml:space="preserve">
<path style="fill:#F4B2B0;" d="M125.442,97.621v-42.71c0-16.083,13.037-29.121,29.121-29.121h202.875
	c16.083,0,29.121,13.037,29.121,29.121v42.71"/>
<g>
	<path style="fill:#B3404A;" d="M386.558,112.182c-8.042,0-14.56-6.519-14.56-14.56v-42.71c0-8.029-6.532-14.56-14.56-14.56H154.562
		c-8.029,0-14.56,6.532-14.56,14.56v42.71c0,8.042-6.519,14.56-14.56,14.56s-14.56-6.519-14.56-14.56v-42.71
		c0-24.086,19.595-43.681,43.681-43.681h202.875c24.086,0,43.681,19.595,43.681,43.681v42.71
		C401.119,105.663,394.6,112.182,386.558,112.182z"/>
	<path style="fill:#B3404A;" d="M439.289,500.77H72.711C32.618,500.77,0,468.15,0,428.057V156.745
		c0-40.093,32.618-72.711,72.711-72.711h366.577c40.093,0,72.711,32.618,72.711,72.711v271.312
		C512,468.15,479.382,500.77,439.289,500.77z M72.711,113.154c-24.036,0-43.591,19.555-43.591,43.591v271.312
		c0,24.036,19.555,43.591,43.591,43.591h366.577c24.036,0,43.591-19.555,43.591-43.591V156.745
		c0-24.036-19.555-43.591-43.591-43.591L72.711,113.154L72.711,113.154z"/>
</g>
<circle style="fill:#F4B2B0;" cx="256" cy="300.991" r="124.738"/>
<g>
	<path style="fill:#B3404A;" d="M256,440.279c-76.807,0-139.294-62.487-139.294-139.294S179.193,161.69,256,161.69
		s139.294,62.487,139.294,139.294S332.807,440.279,256,440.279z M256,190.81c-60.75,0-110.174,49.424-110.174,110.174
		S195.25,411.158,256,411.158s110.174-49.424,110.174-110.174S316.75,190.81,256,190.81z"/>
	<path style="fill:#B3404A;" d="M256,369.424c-37.738,0-68.439-30.702-68.439-68.439s30.702-68.439,68.439-68.439
		c8.042,0,14.56,6.519,14.56,14.56s-6.519,14.56-14.56,14.56c-21.68,0-39.319,17.638-39.319,39.319S234.32,340.303,256,340.303
		s39.319-17.638,39.319-39.319c0-8.042,6.519-14.56,14.56-14.56c8.042,0,14.56,6.519,14.56,14.56
		C324.439,338.722,293.738,369.424,256,369.424z"/>
	<path style="fill:#B3404A;" d="M430.724,171.397h-58.241c-8.042,0-14.56-6.519-14.56-14.56c0-8.042,6.519-14.56,14.56-14.56h58.241
		c8.042,0,14.56,6.519,14.56,14.56C445.284,164.878,438.766,171.397,430.724,171.397z"/>
</g>
<g>
</g>
<g>
</g>
<g>
</g>
<g>
</g>
<g>
</g>
<g>
</g>
<g>
</g>
<g>
</g>
<g>
</g>
<g>
</g>
<g>
</g>
<g>
</g>
<g>
</g>
<g>
</g>
<g>
</g>
</svg>
